<svg width="168" height="67" viewBox="0 0 168 67" fill="none" xmlns="http://www.w3.org/2000/svg">
<path d="M80.0896 25.8597C79.8819 25.3692 79.5852 24.9226 79.2149 24.5432C78.8392 24.1642 78.3946 23.8628 77.9056 23.6558C77.4135 23.4401 76.8833 23.3281 76.3473 23.3267H68.7815V37.4731H76.3473C76.8873 37.474 77.4218 37.362 77.9172 37.1439C78.8958 36.7231 79.6748 35.9328 80.0896 34.94C80.3027 34.437 80.4112 33.8948 80.4083 33.3473C80.4174 32.7976 80.3129 32.252 80.1013 31.7459C79.8898 31.2397 79.576 30.7842 79.1801 30.4087C79.7654 29.8314 80.1653 29.0884 80.3276 28.2768C80.4899 27.4651 80.4069 26.6227 80.0896 25.8597ZM77.9462 34.0467C77.8624 34.2657 77.7364 34.4655 77.5754 34.6344C77.4097 34.7987 77.2126 34.9267 76.9961 35.0105C76.7868 35.0988 76.5624 35.1448 76.3357 35.1457H71.0814V31.6194H76.3357C76.5788 31.6063 76.8218 31.6464 77.0482 31.7369C77.2541 31.83 77.4408 31.9616 77.5986 32.1248C77.7569 32.2947 77.8808 32.4944 77.9636 32.7125C78.139 33.1435 78.139 33.6274 77.9636 34.0584L77.9462 34.0467ZM77.9462 28.1695C77.8624 28.3885 77.7364 28.5883 77.5754 28.7572C77.4087 28.9231 77.212 29.0548 76.9961 29.1451C76.7883 29.2396 76.5635 29.2896 76.3357 29.292H71.0814V25.7657H76.3357C76.5624 25.7666 76.7868 25.8125 76.9961 25.9009C77.2126 25.9847 77.4097 26.1127 77.5754 26.277C77.8993 26.6083 78.0806 27.0564 78.0794 27.523C78.0688 27.729 78.0237 27.9317 77.9462 28.1224V28.1695Z" fill="#494D4C"/>
<path d="M89.6831 23.303C88.7637 23.2855 87.8508 23.4618 87.0021 23.821C86.1535 24.1802 85.3877 24.7142 84.7531 25.3894C84.1051 26.0446 83.5908 26.8232 83.24 27.6805C82.8891 28.5377 82.7085 29.4568 82.7085 30.385C82.7085 31.3133 82.8891 32.2324 83.24 33.0896C83.5908 33.9469 84.1051 34.7254 84.7531 35.3806C85.7317 36.3661 86.9753 37.0363 88.328 37.3071C89.6806 37.578 91.082 37.4375 92.3562 36.9032C93.6304 36.3689 94.7207 35.4647 95.4901 34.304C96.2596 33.1433 96.6739 31.7779 96.6811 30.3792C96.666 28.5021 95.9234 26.7064 94.614 25.3801C93.3045 24.0539 91.5333 23.3035 89.6831 23.2913V23.303ZM92.962 33.735C92.5349 34.1761 92.0242 34.5248 91.4606 34.7601C90.8971 34.9955 90.2924 35.1126 89.6831 35.1044C88.4539 35.1044 87.2751 34.6091 86.406 33.7273C85.5369 32.8456 85.0486 31.6496 85.0486 30.4027C85.0549 29.6323 85.2478 28.8754 85.6101 28.1984C85.9724 27.5213 86.4932 26.945 87.1266 26.5201C87.76 26.0952 88.4866 25.8346 89.2425 25.7614C89.9984 25.6882 90.7604 25.8046 91.4616 26.1002C92.1628 26.3959 92.7817 26.8618 93.2637 27.4571C93.7458 28.0523 94.0763 28.7586 94.2262 29.5138C94.3761 30.269 94.3408 31.05 94.1234 31.7881C93.9059 32.5262 93.5131 33.1988 92.9793 33.7468L92.962 33.735Z" fill="#494D4C"/>
<path d="M105.562 23.303C104.643 23.2855 103.73 23.4618 102.881 23.821C102.032 24.1802 101.267 24.7142 100.632 25.3894C99.984 26.0446 99.4697 26.8232 99.1189 27.6805C98.768 28.5377 98.5874 29.4568 98.5874 30.385C98.5874 31.3133 98.768 32.2324 99.1189 33.0896C99.4697 33.9469 99.984 34.7254 100.632 35.3806C101.612 36.3632 102.855 37.031 104.207 37.3002C105.559 37.5695 106.959 37.4284 108.232 36.8946C109.505 36.3608 110.594 35.458 111.364 34.2991C112.134 33.1402 112.55 31.7767 112.56 30.3792C112.543 28.5025 111.8 26.7077 110.491 25.3818C109.182 24.0559 107.412 23.3051 105.562 23.2913V23.303ZM108.841 33.735C108.413 34.1755 107.903 34.5239 107.339 34.7592C106.776 34.9945 106.171 35.1119 105.562 35.1044C104.333 35.1044 103.154 34.6091 102.285 33.7273C101.416 32.8456 100.928 31.6496 100.928 30.4027C100.934 29.6323 101.127 28.8754 101.489 28.1984C101.851 27.5213 102.372 26.945 103.005 26.5201C103.639 26.0952 104.365 25.8346 105.121 25.7614C105.877 25.6882 106.639 25.8046 107.341 26.1002C108.042 26.3959 108.661 26.8618 109.143 27.4571C109.625 28.0523 109.955 28.7586 110.105 29.5138C110.255 30.269 110.22 31.05 110.002 31.7881C109.785 32.5262 109.392 33.1988 108.858 33.7468L108.841 33.735Z" fill="#494D4C"/>
<path d="M119.048 23.303C117.976 23.3137 116.951 23.7506 116.193 24.5198C115.434 25.289 115.004 26.3292 114.993 27.417C114.993 28.5081 115.42 29.5545 116.181 30.3261C116.941 31.0976 117.973 31.531 119.048 31.531H122.524C122.754 31.5262 122.982 31.5708 123.194 31.662C123.406 31.7532 123.596 31.8888 123.752 32.06C123.92 32.2198 124.053 32.4129 124.144 32.6273C124.235 32.8417 124.281 33.0727 124.28 33.306C124.28 33.5437 124.235 33.7793 124.146 33.9995C124.067 34.2205 123.94 34.4211 123.776 34.5872C123.608 34.7463 123.411 34.8701 123.196 34.9516C122.977 35.0415 122.743 35.0874 122.507 35.0868H114.976V37.4376H122.507C123.582 37.4376 124.614 37.0042 125.374 36.2327C126.135 35.4611 126.562 34.4147 126.562 33.3236C126.562 32.2325 126.135 31.1861 125.374 30.4145C124.614 29.643 123.582 29.2096 122.507 29.2096H119.031C118.797 29.2151 118.565 29.1703 118.349 29.0782C118.133 28.986 117.939 28.8485 117.78 28.6747C117.617 28.5086 117.489 28.3113 117.402 28.0943C117.316 27.8774 117.273 27.6452 117.276 27.4111C117.275 26.9445 117.456 26.4965 117.78 26.1652C117.944 25.9995 118.142 25.8713 118.359 25.789C118.576 25.6992 118.808 25.6532 119.043 25.6539H132.743V37.4729H135.061V25.6715H139.394L137.523 23.3206L119.048 23.303Z" fill="#494D4C"/>
<path d="M148.147 30.3909L153.598 23.3089H150.644L146.658 28.4691L139.133 19.2537H136.155L145.187 30.3909L139.718 37.473H142.696L146.658 32.3069L157.474 44.2023H160.428L148.147 30.3909Z" fill="#494D4C"/>
<path d="M69.5868 41.4402V44.2025H68.8337V39.5889L71.1104 41.8927L73.3871 39.5889V44.2025H72.6224V41.4402L71.1104 42.9859L69.5868 41.4402Z" fill="#494D4C"/>
<path d="M78.0737 42.2806C78.0744 42.536 78.0233 42.7889 77.9237 43.0235C77.824 43.258 77.6779 43.4693 77.4943 43.6441C77.1384 44.0023 76.6575 44.2033 76.1561 44.2033C75.6548 44.2033 75.1738 44.0023 74.8179 43.6441C74.6399 43.4665 74.4993 43.2541 74.4047 43.0197C74.3101 42.7853 74.2635 42.5339 74.2676 42.2806V39.5889H75.0207V42.2806C75.0167 42.4361 75.044 42.5907 75.1008 42.7352C75.1576 42.8796 75.2428 43.0108 75.3512 43.1208C75.4596 43.2307 75.5889 43.3172 75.7313 43.3748C75.8736 43.4325 76.0261 43.4601 76.1793 43.4561C76.3286 43.4585 76.4767 43.4295 76.6143 43.3708C76.752 43.3121 76.876 43.2251 76.9788 43.1152C77.0873 43.0108 77.1736 42.885 77.2324 42.7455C77.2912 42.6061 77.3212 42.4558 77.3206 42.3041V39.5889H78.0794L78.0737 42.2806Z" fill="#494D4C"/>
<path d="M78.9773 39.5889H79.7304V43.4326H82.0013V44.2025H78.9773V39.5889Z" fill="#494D4C"/>
<path d="M81.3179 39.5889H85.1124V40.3588H83.6004V44.2025H82.8415V40.3588H81.3179V39.5889Z" fill="#494D4C"/>
<path d="M86.0161 39.5889H86.7692V44.2025H86.0161V39.5889Z" fill="#494D4C"/>
<path d="M89.3702 41.5811V42.1688H87.2673V41.5811H89.3702Z" fill="#494D4C"/>
<path d="M92.1509 39.5887C92.4533 39.5859 92.7529 39.6459 93.0315 39.765C93.302 39.8834 93.5477 40.0529 93.7556 40.2646L93.2227 40.8112C93.0834 40.6662 92.9166 40.5514 92.7325 40.4736C92.5483 40.3958 92.3504 40.3567 92.1509 40.3586C91.9521 40.3586 91.7552 40.3986 91.5716 40.4762C91.3895 40.5521 91.2241 40.6639 91.0849 40.8052C90.9457 40.9464 90.8355 41.1142 90.7606 41.299C90.6796 41.484 90.6382 41.6843 90.639 41.8867C90.6389 42.0891 90.6803 42.2892 90.7606 42.4744C90.8392 42.6554 90.9491 42.8206 91.085 42.9622C91.2206 43.1051 91.3845 43.2173 91.5658 43.2914C91.7486 43.3722 91.9458 43.4142 92.1451 43.4148C92.3441 43.4161 92.5412 43.3773 92.7252 43.3006C92.9092 43.2239 93.0763 43.1109 93.2169 42.9681L93.7498 43.5029C93.5434 43.7164 93.2972 43.8862 93.0257 44.0025C92.7484 44.1264 92.4481 44.1885 92.1451 44.1847C91.8425 44.185 91.5429 44.1231 91.2646 44.0025C90.9941 43.8842 90.7484 43.7146 90.5405 43.5029C90.3324 43.2938 90.1653 43.0465 90.0481 42.7742C89.9327 42.495 89.8733 42.1953 89.8733 41.8926C89.8733 41.5899 89.9327 41.2902 90.0481 41.011C90.2824 40.4565 90.718 40.0146 91.2646 39.7768C91.5434 39.6506 91.8457 39.5865 92.1509 39.5887Z" fill="#494D4C"/>
<path d="M94.6594 39.5889H95.4125V41.5107H97.6834V39.5889H98.4481V44.2025H97.6834V42.2806H95.4125V44.2025H94.6594V39.5889Z" fill="#494D4C"/>
<path d="M102.665 43.4326H100.58L100.221 44.2025H99.375L101.652 39.5889L103.923 44.2025H103.077L102.665 43.4326ZM100.928 42.6626H102.266L101.6 41.3109L100.928 42.6626Z" fill="#494D4C"/>
<path d="M104.792 39.5889H105.55V44.2025H104.792V39.5889Z" fill="#494D4C"/>
<path d="M106.448 39.583L109.478 42.3453V39.583H110.237V44.2025L107.201 41.4343V44.1966H106.448V39.583Z" fill="#494D4C"/>
<path d="M112.716 39.5889H113.469V43.4326H115.746V44.2025H112.716V39.5889Z" fill="#494D4C"/>
<path d="M119.969 43.4326H117.878L117.49 44.2025H116.644L118.921 39.5889L121.192 44.2025H120.346L119.969 43.4326ZM118.231 42.6626H119.57L118.903 41.3109L118.231 42.6626Z" fill="#494D4C"/>
<path d="M125.264 42.2806C125.265 42.536 125.214 42.7889 125.114 43.0235C125.015 43.258 124.869 43.4693 124.685 43.6441C124.421 43.9136 124.083 44.0971 123.715 44.1713C123.348 44.2456 122.967 44.2071 122.621 44.0609C122.275 43.9147 121.979 43.6673 121.772 43.3503C121.565 43.0332 121.456 42.6609 121.458 42.2806V39.5889H122.235V42.2806C122.231 42.4311 122.258 42.5808 122.314 42.7203C122.37 42.8598 122.453 42.9862 122.559 43.0917C122.664 43.2004 122.789 43.2865 122.927 43.3451C123.066 43.4037 123.214 43.4334 123.364 43.4326C123.672 43.4326 123.966 43.3087 124.183 43.0883C124.401 42.8678 124.523 42.5689 124.523 42.2571V39.5889H125.282L125.264 42.2806Z" fill="#494D4C"/>
<path d="M126.168 39.583L129.192 42.3453V39.583H129.951V44.2025L126.921 41.4343V44.1966H126.168V39.583Z" fill="#494D4C"/>
<path d="M133.131 39.5887C133.434 39.5859 133.733 39.6459 134.012 39.765C134.281 39.8849 134.527 40.0543 134.736 40.2646L134.203 40.8112C134.027 40.6303 133.81 40.4964 133.571 40.4214C133.331 40.3464 133.078 40.3326 132.832 40.3813C132.586 40.4299 132.356 40.5395 132.162 40.7003C131.968 40.861 131.816 41.068 131.721 41.3026C131.625 41.5373 131.587 41.7924 131.612 42.0452C131.637 42.298 131.723 42.5406 131.863 42.7515C132.002 42.9623 132.191 43.1348 132.413 43.2536C132.634 43.3725 132.881 43.4339 133.131 43.4324C133.33 43.4337 133.527 43.3949 133.711 43.3183C133.895 43.2416 134.062 43.1285 134.203 42.9857L134.736 43.5206C134.528 43.7323 134.282 43.9018 134.012 44.0201C133.735 44.144 133.434 44.2061 133.131 44.2023C132.828 44.2085 132.527 44.1511 132.247 44.0338C131.967 43.9165 131.714 43.7417 131.503 43.5206C131.186 43.198 130.97 42.7872 130.883 42.34C130.795 41.8928 130.841 41.4295 131.013 41.0085C131.186 40.5876 131.477 40.228 131.851 39.9752C132.225 39.7225 132.665 39.588 133.114 39.5887H133.131Z" fill="#494D4C"/>
<path d="M135.64 39.5889H136.393V41.5107H138.664V39.5889H139.423V44.2025H138.664V42.2806H136.393V44.2025H135.64V39.5889Z" fill="#494D4C"/>
<path d="M141.08 42.6626V44.2025H140.326V39.5889H142.597C142.804 39.5759 143.011 39.606 143.206 39.6774C143.401 39.7487 143.58 39.8598 143.731 40.0038C143.882 40.1478 144.002 40.3216 144.084 40.5146C144.166 40.7075 144.209 40.9155 144.209 41.1258C144.209 41.336 144.166 41.544 144.084 41.7369C144.002 41.9299 143.882 42.1037 143.731 42.2477C143.58 42.3917 143.401 42.5028 143.206 42.5741C143.011 42.6455 142.804 42.6756 142.597 42.6626H141.08ZM141.08 40.3588V41.8927H142.597C142.797 41.8927 142.989 41.8122 143.13 41.669C143.271 41.5257 143.35 41.3313 143.35 41.1287C143.353 41.0279 143.335 40.9277 143.297 40.8345C143.259 40.7414 143.202 40.6574 143.13 40.588C143.062 40.5147 142.979 40.4565 142.887 40.417C142.796 40.3776 142.697 40.3578 142.597 40.3588H141.08Z" fill="#494D4C"/>
<path d="M147.041 43.4326H144.949L144.561 44.2025H143.715L145.986 39.5889L148.257 44.2025H147.411L147.041 43.4326ZM145.303 42.6626H146.641L145.986 41.3109L145.303 42.6626Z" fill="#494D4C"/>
<path d="M149.167 39.5889H150.679C151.262 39.6187 151.811 39.8748 152.214 40.3041C152.616 40.7335 152.84 41.3033 152.84 41.8957C152.84 42.4881 152.616 43.0578 152.214 43.4872C151.811 43.9165 151.262 44.1726 150.679 44.2025H149.167V39.5889ZM150.679 43.4326C150.877 43.4348 151.073 43.3963 151.256 43.3196C151.44 43.2428 151.606 43.1293 151.744 42.9859C151.887 42.8435 152.001 42.6733 152.077 42.4855C152.154 42.2976 152.192 42.096 152.19 41.8927C152.187 41.4868 152.027 41.0985 151.744 40.8115C151.461 40.5245 151.079 40.3619 150.679 40.3588H149.92V43.4326H150.679Z" fill="#494D4C"/>
<path d="M153.639 43.7499C153.635 43.6798 153.645 43.6096 153.669 43.5438C153.693 43.4779 153.73 43.4177 153.778 43.367C153.826 43.3163 153.883 43.2761 153.947 43.2489C154.011 43.2218 154.079 43.2082 154.149 43.2092C154.218 43.2073 154.287 43.2202 154.351 43.2471C154.415 43.274 154.472 43.3143 154.52 43.3653C154.567 43.4163 154.604 43.4769 154.627 43.5432C154.65 43.6095 154.658 43.6799 154.653 43.7499C154.66 43.822 154.653 43.895 154.631 43.964C154.609 44.0331 154.573 44.0967 154.525 44.1506C154.477 44.2046 154.419 44.2478 154.353 44.2773C154.288 44.3069 154.217 44.3221 154.146 44.3221C154.074 44.3221 154.004 44.3069 153.938 44.2773C153.873 44.2478 153.814 44.2046 153.767 44.1506C153.719 44.0967 153.683 44.0331 153.661 43.964C153.639 43.895 153.631 43.822 153.639 43.7499Z" fill="#494D4C"/>
<path d="M50.1856 39.3772L48.5346 21.3636L60.4452 34.2934V19.43C60.428 18.9999 60.3051 18.581 60.0875 18.2115C59.87 17.8419 59.5648 17.5335 59.1997 17.3142L35.2162 4.16104C34.8382 3.98118 34.4259 3.88794 34.0084 3.88794C33.5909 3.88794 33.1785 3.98118 32.8005 4.16104L8.81705 17.3142C8.45125 17.5327 8.14546 17.8409 7.92782 18.2106C7.71017 18.5804 7.58765 18.9997 7.57153 19.43V33.3589L16.8405 30.3616L18.4857 46.5944L7.57153 35.6981V47.5582C7.58827 47.9892 7.71099 48.4091 7.92853 48.7796C8.14607 49.1502 8.45151 49.4597 8.81705 49.6799L32.8005 62.8272C33.1747 63.0166 33.5872 63.1151 34.0055 63.1151C34.4237 63.1151 34.8362 63.0166 35.2104 62.8272L59.1997 49.6799C59.5645 49.4589 59.8694 49.1492 60.0868 48.7788C60.3043 48.4084 60.4274 47.989 60.4452 47.5582V36.8382L50.1856 39.3772ZM48.662 39.7474L41.5017 41.5106L47.15 23.5088L48.662 39.7474ZM27.8068 26.7941L46.3448 20.77L40.1404 40.488L27.8068 26.7941ZM39.3931 42.0278L19.3663 46.9588L26.2427 27.4288L39.3931 42.0278ZM58.4466 18.7188C58.5621 18.8003 58.6592 18.9059 58.7311 19.0285C58.8031 19.1512 58.8483 19.2881 58.8637 19.43V30.244L37.8753 7.44051L58.4466 18.7188ZM46.4201 19.0656L26.9553 25.3895L33.9475 5.51867L46.4201 19.0656ZM33.1944 5.76551L26.3586 25.1896L16.9042 14.693L33.1944 5.76551ZM9.14726 31.1785V19.4241C9.16267 19.2822 9.20788 19.1453 9.27983 19.0227C9.35178 18.9 9.4488 18.7944 9.56436 18.713L15.3575 15.5569L16.6899 28.7277L9.14726 31.1785ZM16.0121 16.0741L24.9856 26.0301L17.2808 28.5338L16.0121 16.0741ZM17.443 30.1794L25.5533 27.5523L19.0477 45.9714L17.443 30.1794ZM9.56436 48.2694C9.4488 48.1879 9.35178 48.0823 9.27983 47.9597C9.20788 47.837 9.16267 47.7001 9.14726 47.5582V38.1547L31.1031 60.0708L9.56436 48.2694ZM33.5478 61.4166L19.4706 47.6052L39.4568 42.686L33.5478 61.4166ZM35.3553 60.9347L40.8124 43.6029L49.4557 53.2003L35.3553 60.9347ZM41.6234 42.1277L48.6968 40.3645L49.6758 51.0434L41.6234 42.1277ZM58.8637 47.5524C58.8483 47.6942 58.8031 47.8311 58.7311 47.9538C58.6592 48.0765 58.5621 48.1821 58.4466 48.2635L51.3558 52.1601L50.2435 40.0119L58.8637 37.8844V47.5524Z" fill="url(#paint0_linear_13_978)"/>
<defs>
<linearGradient id="paint0_linear_13_978" x1="14.5986" y1="53.1886" x2="55.5701" y2="12.8033" gradientUnits="userSpaceOnUse">
<stop stop-color="#00AEA5"/>
<stop offset="0.23" stop-color="#00ADAE"/>
<stop offset="0.62" stop-color="#00A9C7"/>
<stop offset="1" stop-color="#00A4E6"/>
</linearGradient>
</defs>
</svg>
