<svg width="547" height="523" viewBox="0 0 547 523" fill="none" xmlns="http://www.w3.org/2000/svg">
<path fill-rule="evenodd" clip-rule="evenodd" d="M1.0553 218.147L1.06524 218.171L1.05601 218.147H1.0553ZM1.44 219.039L132.261 522.398H273.18L143.966 222.764C139.849 226.521 133.447 226.822 128.85 223.21C123.74 219.195 122.802 211.864 126.751 206.837C128.881 204.129 131.997 202.643 135.217 202.476L126.076 181.282C129.645 189.471 127.262 201.577 119.294 211.713C112.237 220.69 102.645 225.759 94.4317 225.757L53.6055 225.755C48.8628 225.755 44.4707 224.543 40.9176 221.751C37.6051 219.147 35.3949 215.526 34.2607 211.3C33.5445 212.494 32.7368 213.672 31.8368 214.817C23.8667 224.957 11.7438 228.726 4.75748 223.235C3.32658 222.11 2.22288 220.683 1.44 219.039Z" fill="url(#paint0_linear_32_226)"/>
<path fill-rule="evenodd" clip-rule="evenodd" d="M129.482 150.895L289.691 522.398H401.018L232.079 130.648C234.286 135.643 232.838 143.053 227.964 149.256C221.725 157.195 212.233 160.145 206.764 155.846C204.227 153.853 203.003 150.647 203.041 146.993C195.747 153.811 187.183 157.818 179.554 157.816L139.497 157.801C137.031 157.8 134.761 156.897 132.88 155.419C131.366 154.229 130.237 152.684 129.485 150.894L129.482 150.895ZM232.079 130.647L232.064 130.613H232.063L232.079 130.647Z" fill="url(#paint1_linear_32_226)"/>
<path d="M94.1315 499.633V263.731C94.1315 258.737 99.5059 255.918 104.499 255.918H461.571C466.564 255.918 469.077 258.737 469.077 263.731V499.633H94.1315Z" fill="#1A1A1A"/>
<path d="M353.056 499.633L247.955 255.918H461.571C466.564 255.918 469.077 258.737 469.077 263.731V499.633H353.056Z" fill="#656666"/>
<path d="M457.025 484.903H108.861V273.327H457.025V484.903Z" fill="#E6E6E6"/>
<path d="M499.204 522.398H68.0196C61.2405 522.398 49.9417 514.363 49.9417 514.363H517.284C517.284 514.363 505.983 522.398 499.204 522.398Z" fill="#686767"/>
<path d="M517.284 514.363H49.9417V503.285C49.9417 500.79 52.2832 499.633 54.7802 499.633H513.55C516.047 499.633 517.284 500.79 517.284 503.285V514.363Z" fill="#B2B2B2"/>
<path d="M323.715 507.668H242.355C235.576 507.668 235.576 499.633 235.576 499.633H330.494C330.494 499.633 330.494 507.668 323.715 507.668Z" fill="#E8E8E8"/>
<path d="M457.025 484.903H346.704L255.463 273.327H457.025V484.903Z" fill="#FCFCFC"/>
<path d="M517.284 514.363H359.409L353.056 499.633H513.55C516.047 499.633 517.284 500.79 517.284 503.285V514.363Z" fill="#DADADA"/>
<path d="M499.204 522.398H362.873L359.409 514.363H517.285C517.285 514.363 505.983 522.398 499.204 522.398Z" fill="#8E8B8B"/>
<path d="M286.582 265.462C286.582 267.422 284.995 269.009 283.035 269.009C281.075 269.009 279.487 267.422 279.487 265.462C279.487 263.502 281.075 261.914 283.035 261.914C284.995 261.914 286.582 263.502 286.582 265.462Z" fill="black"/>
<path d="M238.175 455.576H160.508V418.082H238.175V455.576Z" fill="#72C5B9"/>
<path d="M405.562 328.691H160.508V299.2H405.562V328.691Z" fill="#477F77"/>
<path d="M405.562 396.984H160.508V338.064H405.562V396.984Z" fill="#5EA79B"/>
<path d="M405.562 455.576H327.895V418.082H405.562V455.576Z" fill="#72C5B9"/>
<path d="M321.869 455.576H244.201V418.082H321.869V455.576Z" fill="#72C5B9"/>
<path d="M405.562 328.691H279.338L266.62 299.2H405.562V328.691Z" fill="#5EA79B"/>
<path d="M405.562 396.984H308.789L283.381 338.064H405.562V396.984Z" fill="#72C5B9"/>
<path d="M405.562 455.576H334.057L327.895 441.286V418.082H405.562V455.576Z" fill="#8DDDD5"/>
<path fill-rule="evenodd" clip-rule="evenodd" d="M485.286 163.413C489.83 166.986 492.299 172.471 492.763 178.809C502.116 171.621 513.109 169.894 520.096 175.386C529.062 182.433 528.037 198.698 517.807 211.714C510.752 220.689 501.16 225.758 492.945 225.758L452.121 225.754C447.379 225.754 442.987 224.542 439.433 221.75C436.121 219.146 433.911 215.526 432.777 211.3C432.06 212.494 431.253 213.672 430.353 214.817C422.383 224.956 410.26 228.725 403.275 223.235C396.291 217.745 397.089 205.074 405.058 194.935C413.028 184.795 425.151 181.026 432.136 186.517C433.228 187.375 434.129 188.409 434.843 189.581C436.574 185.226 439.052 180.878 442.266 176.788C454.927 160.679 474.188 154.691 485.286 163.413ZM541.669 205.008C546.778 209.023 547.717 216.353 543.765 221.379C539.815 226.405 532.471 227.225 527.362 223.21C522.253 219.195 521.315 211.864 525.265 206.837C529.216 201.811 536.56 200.992 541.669 205.008Z" fill="#D1EDE9"/>
<path fill-rule="evenodd" clip-rule="evenodd" d="M210.987 98.4441C218.425 104.29 220.03 115.518 216.126 127.005C220.923 124.56 225.932 124.405 229.36 127.1C234.828 131.397 234.203 141.317 227.964 149.256C221.725 157.195 212.233 160.145 206.764 155.846C204.227 153.853 203.002 150.648 203.041 146.993C195.747 153.812 187.182 157.818 179.553 157.816L139.497 157.802C137.031 157.8 134.761 156.897 132.88 155.419C126.227 150.19 126.987 138.123 134.578 128.465C142.167 118.808 153.714 115.219 160.367 120.448C161.407 121.265 162.265 122.25 162.945 123.367C164.593 119.219 166.953 115.078 170.015 111.182C182.074 95.84 200.419 90.1362 210.987 98.4441Z" fill="#D7FBF9"/>
<path fill-rule="evenodd" clip-rule="evenodd" d="M86.771 163.412C91.3157 166.984 93.7843 172.47 94.2492 178.807C103.603 171.62 114.596 169.893 121.583 175.384C130.549 182.432 129.524 198.697 119.294 211.713C112.238 220.69 102.647 225.759 94.4316 225.758L53.6054 225.754C48.8627 225.754 44.4713 224.542 40.9175 221.75C37.605 219.147 35.3948 215.525 34.2606 211.3C33.5444 212.495 32.7367 213.672 31.8374 214.816C23.8673 224.957 11.7437 228.726 4.75809 223.236C-2.2268 217.745 -1.4283 205.074 6.54104 194.935C14.5104 184.795 26.6347 181.025 33.6189 186.516C34.712 187.374 35.6134 188.409 36.3274 189.58C38.0578 185.226 40.5357 180.877 43.7502 176.787C56.4119 160.678 75.6737 154.689 86.771 163.412ZM143.156 205.007C148.265 209.023 149.204 216.352 145.254 221.379C141.303 226.406 133.958 227.225 128.849 223.21C123.74 219.195 122.801 211.864 126.752 206.837C130.703 201.811 138.048 200.991 143.156 205.007Z" fill="#D7FBF9"/>
<path fill-rule="evenodd" clip-rule="evenodd" d="M269.36 305.553C272.774 295.741 282.104 288.698 293.08 288.698C296.096 288.698 298.986 289.23 301.666 290.205L310.644 193.265H347.461L358.575 313.272C361.641 311.242 365.315 310.058 369.267 310.058C379.974 310.058 388.654 318.738 388.654 329.445C388.654 339.212 381.429 347.29 372.033 348.632C387.338 351.814 398.839 365.374 398.839 381.621C398.839 382.961 398.759 384.284 398.606 385.583C406.076 378.817 415.986 374.695 426.859 374.695C438.69 374.695 449.378 379.576 457.025 387.431V484.903H346.703H329.053H283.633H258.037H122.054C86.1223 484.903 56.9939 455.776 56.9939 419.843C56.9939 383.911 86.1223 354.783 122.054 354.783C139.035 354.783 154.493 361.29 166.079 371.946C173.542 367.402 182.309 364.785 191.686 364.785C206.067 364.785 219.008 370.941 228.023 380.76L228.022 380.755L228.024 380.76C227.731 378.745 227.579 376.685 227.579 374.59C227.579 351.068 246.646 332.001 270.168 332.001C272.229 332.001 274.256 332.151 276.237 332.434C271.16 327.839 267.969 321.197 267.969 313.808C267.969 310.916 268.46 308.138 269.36 305.553Z" fill="#C7EDE8"/>
<path fill-rule="evenodd" clip-rule="evenodd" d="M457.025 484.903V407.879C450.256 400.261 440.387 395.46 429.395 395.46C415.126 395.46 402.749 403.548 396.592 415.387C392.072 402.747 380.371 393.523 366.402 392.635C372.267 389.405 376.242 383.166 376.242 375.997C376.242 365.515 367.746 357.017 357.262 357.017C353.878 357.017 350.703 357.903 347.952 359.455L339.145 193.265H318.959L308.944 382.265C307.027 373.813 299.469 367.504 290.437 367.504C279.954 367.504 271.457 376.002 271.457 386.484C271.457 394.315 276.201 401.038 282.97 403.938C280.983 403.58 278.935 403.394 276.844 403.394C259.954 403.394 245.907 415.563 242.991 431.611C237.347 416.841 223.045 406.35 206.291 406.35C184.598 406.35 167.015 423.933 167.015 445.626C167.015 467.318 184.598 484.903 206.291 484.903C289.869 484.903 373.447 484.903 457.025 484.903Z" fill="white"/>
<path fill-rule="evenodd" clip-rule="evenodd" d="M450.544 417.674C433.741 417.674 419.819 430.002 417.328 446.107C412.896 437.672 404.053 431.92 393.862 431.92C387.244 431.92 381.192 434.348 376.547 438.361C372.237 422.906 358.056 411.567 341.226 411.567C332.635 411.567 324.735 414.522 318.486 419.469L346.704 484.903H457.025V418.3C454.929 417.891 452.762 417.674 450.544 417.674Z" fill="#C7EDE8"/>
<path fill-rule="evenodd" clip-rule="evenodd" d="M318.486 419.469C310.001 426.186 304.558 436.573 304.558 448.235C304.558 449.679 304.643 451.102 304.806 452.503C301.157 444.916 293.4 439.679 284.418 439.679C271.93 439.679 261.806 449.803 261.806 462.291C261.806 474.779 271.93 484.903 284.418 484.903H346.703L318.486 419.469Z" fill="#DEF7F4"/>
<path fill-rule="evenodd" clip-rule="evenodd" d="M329.053 273.327C317.194 263.222 306.126 239.036 306.126 219.69C306.126 209.144 309.177 199.686 314.004 193.265H329.053V273.327Z" fill="#F4D458"/>
<path fill-rule="evenodd" clip-rule="evenodd" d="M329.053 273.327C340.912 263.222 351.98 239.036 351.98 219.69C351.98 209.144 348.929 199.686 344.102 193.265H329.053V273.327Z" fill="#EBAC2E"/>
<path fill-rule="evenodd" clip-rule="evenodd" d="M329.053 246.99C320.648 239.829 312.804 222.687 312.804 208.977C312.804 203.015 314.18 197.544 316.473 193.265H329.053V246.99Z" fill="#FBF0C0"/>
<path fill-rule="evenodd" clip-rule="evenodd" d="M329.053 246.99C337.458 239.829 345.303 222.687 345.303 208.977C345.303 203.015 343.926 197.544 341.633 193.265H329.053V246.99Z" fill="#F6DA6B"/>
<path fill-rule="evenodd" clip-rule="evenodd" d="M360.28 182.938L371.436 204.248C375.223 211.482 379.245 209.297 381.564 206.027C389.835 194.363 394.841 179.466 394.841 158.887C394.841 136.957 384.337 116.49 374.649 104.1C374.765 106.301 374.826 108.483 374.826 110.637C374.826 134.687 369.222 165.337 360.28 182.938Z" fill="#9B5214"/>
<path fill-rule="evenodd" clip-rule="evenodd" d="M297.825 182.938C288.884 165.337 283.28 134.688 283.28 110.638C283.28 81.6781 294.179 47.7005 306.233 25.1148H329.053V182.938H297.825Z" fill="white"/>
<path fill-rule="evenodd" clip-rule="evenodd" d="M297.826 182.939L285.487 206.106C282.637 211.458 278.677 208.898 276.359 205.786C267.586 194.008 263.265 179.466 263.265 158.887C263.265 136.659 274.057 115.933 283.852 103.597C285.852 101.298 289.241 102.125 288.378 107.725C284.927 130.138 289.239 166.096 297.826 182.939Z" fill="#EDB33A"/>
<path fill-rule="evenodd" clip-rule="evenodd" d="M360.28 182.938C369.222 165.337 374.826 134.688 374.826 110.638C374.826 81.6781 363.926 47.7005 351.872 25.1148H329.052V182.938H360.28Z" fill="#E6E6E6"/>
<path fill-rule="evenodd" clip-rule="evenodd" d="M329.052 193.265H310.536C307.664 193.265 304.148 192.704 302.053 189.896C300.574 187.913 299.163 185.57 297.825 182.938H329.052V193.265Z" fill="#BE661D"/>
<path fill-rule="evenodd" clip-rule="evenodd" d="M306.233 25.1145C314.294 10.0119 322.871 -0.000125885 329.053 -0.000125885V25.1145H306.233Z" fill="#E27E29"/>
<path fill-rule="evenodd" clip-rule="evenodd" d="M329.052 193.265H347.57C350.441 193.265 353.958 192.704 356.053 189.896C357.532 187.913 358.943 185.57 360.28 182.938H329.052V193.265Z" fill="#9B5214"/>
<path fill-rule="evenodd" clip-rule="evenodd" d="M351.872 25.1145C343.811 10.0119 335.234 -0.000125885 329.052 -0.000125885V25.1145H351.872Z" fill="#BE661D"/>
<path fill-rule="evenodd" clip-rule="evenodd" d="M332.07 206.952C331.194 211.529 326.272 212.098 324.921 206.711C323.57 201.324 320.431 142.248 322.684 132.071C324.494 123.895 333.64 122.155 335.66 130.471C338.827 143.517 334.021 196.759 332.07 206.952Z" fill="#E27E29"/>
<path fill-rule="evenodd" clip-rule="evenodd" d="M332.07 206.952C331.766 208.544 330.779 210.25 329.049 210.532C328.668 210.595 328.279 210.578 327.895 210.478C328.383 210.396 329.052 209.689 329.052 208.882V133.77C329.052 129.975 325.988 127.537 322.684 132.071C324.494 123.895 333.64 122.155 335.66 130.471C338.827 143.517 334.021 196.76 332.07 206.952Z" fill="#BE661D"/>
<path fill-rule="evenodd" clip-rule="evenodd" d="M329.053 106.805C318.954 106.805 310.767 98.6188 310.767 88.5195C310.767 78.4201 318.954 70.2336 329.053 70.2336V106.805Z" fill="#8EC8AA"/>
<path fill-rule="evenodd" clip-rule="evenodd" d="M329.052 106.805C339.152 106.805 347.339 98.6188 347.339 88.5195C347.339 78.4201 339.152 70.2336 329.052 70.2336V106.805Z" fill="#6BA585"/>
<path fill-rule="evenodd" clip-rule="evenodd" d="M329.052 115.048C314.401 115.048 302.525 103.17 302.525 88.5193C302.525 73.8674 314.401 61.9908 329.052 61.9908V115.048Z" fill="#EDB33A"/>
<path fill-rule="evenodd" clip-rule="evenodd" d="M329.052 115.048C343.704 115.048 355.582 103.17 355.582 88.5193C355.582 73.8674 343.704 61.9908 329.052 61.9908V115.048Z" fill="#E27E29"/>
<path fill-rule="evenodd" clip-rule="evenodd" d="M329.053 113.202C315.421 113.202 304.371 102.15 304.371 88.5193C304.371 74.8874 315.421 63.8369 329.053 63.8369V113.202Z" fill="#E27E29"/>
<path fill-rule="evenodd" clip-rule="evenodd" d="M329.052 113.202C342.684 113.202 353.735 102.15 353.735 88.5193C353.735 74.8874 342.684 63.8369 329.052 63.8369V113.202Z" fill="#BE661D"/>
<path fill-rule="evenodd" clip-rule="evenodd" d="M329.052 108.651C317.934 108.651 308.92 99.6386 308.92 88.5193C308.92 77.4007 317.934 68.3866 329.052 68.3866V108.651Z" fill="#9B5214"/>
<path fill-rule="evenodd" clip-rule="evenodd" d="M329.052 108.651C340.172 108.651 349.185 99.6386 349.185 88.5193C349.185 77.4007 340.172 68.3866 329.052 68.3866V108.651Z" fill="#E27E29"/>
<path fill-rule="evenodd" clip-rule="evenodd" d="M297.825 182.938L285.487 206.106C283.03 210.72 278.951 204.516 277.443 201.869C271.734 191.837 267.736 177.763 269.343 160.234C270.962 142.557 279.587 125.996 287.535 115.324C285.877 137.86 290.336 167.337 297.825 182.938Z" fill="#E27E29"/>
<path fill-rule="evenodd" clip-rule="evenodd" d="M360.28 182.938L371.109 203.623C374.939 210.937 378.24 205.331 380.085 202.573C386.636 192.778 389.941 180.141 389.941 163.56C389.941 147.102 382.42 130.4 374.558 120.119C373.816 133.648 371.568 148.339 368.155 161.224C366.087 169.586 363.42 177.233 360.28 182.938Z" fill="#BE661D"/>
<path fill-rule="evenodd" clip-rule="evenodd" d="M329.053 106.805C318.954 106.805 310.767 98.6188 310.767 88.5195C310.767 78.4201 318.954 70.2336 329.053 70.2336V106.805Z" fill="#7DB8CF"/>
<path fill-rule="evenodd" clip-rule="evenodd" d="M329.052 106.805C339.152 106.805 347.339 98.6188 347.339 88.5195C347.339 78.4201 339.152 70.2336 329.052 70.2336V106.805Z" fill="#4A7587"/>
<path fill-rule="evenodd" clip-rule="evenodd" d="M319.208 73.1067L329.053 95.9365V88.5805L321.788 71.7354C320.888 72.1258 320.025 72.5836 319.208 73.1067Z" fill="#AEE5FB"/>
<path fill-rule="evenodd" clip-rule="evenodd" d="M324.827 70.7253L329.053 80.5237V70.2333C327.598 70.2333 326.183 70.4037 324.827 70.7253Z" fill="#AEE5FB"/>
<path fill-rule="evenodd" clip-rule="evenodd" d="M329.053 95.9365L333.505 106.259C334.46 106.02 335.385 105.706 336.273 105.323L329.053 88.5804V95.9365Z" fill="#69A9C2"/>
<path fill-rule="evenodd" clip-rule="evenodd" d="M329.053 80.5238L339.092 103.804C341.046 102.518 342.738 100.867 344.073 98.9481L331.779 70.4365C330.889 70.3031 329.979 70.2335 329.053 70.2335V80.5238Z" fill="#69A9C2"/>
<defs>
<linearGradient id="paint0_linear_32_226" x1="137.118" y1="522.398" x2="137.118" y2="181.282" gradientUnits="userSpaceOnUse">
<stop stop-color="#92C8C5"/>
<stop offset="1" stop-color="#92C8C5" stop-opacity="0"/>
</linearGradient>
<linearGradient id="paint1_linear_32_226" x1="265.25" y1="522.398" x2="265.25" y2="130.613" gradientUnits="userSpaceOnUse">
<stop stop-color="#92C8C5"/>
<stop offset="1" stop-color="#92C8C5" stop-opacity="0"/>
</linearGradient>
</defs>
</svg>
